<?xml version="1.0" encoding="UTF-8"?>
<svg version="1.1" xmlns="http://www.w3.org/2000/svg" width="500" height="500">
<path d="M0 0 C3.51195957 0.8342236 6.93584975 1.90735179 10.375 3 C11.36781982 3.3096167 12.36063965 3.6192334 13.38354492 3.93823242 C16.59325299 4.94602199 19.79720988 5.97044683 23 7 C24.67618408 7.53681396 24.67618408 7.53681396 26.38623047 8.08447266 C29.69838308 9.15037058 33.00629642 10.2283017 36.3125 11.3125 C37.86880127 11.81813477 37.86880127 11.81813477 39.45654297 12.33398438 C40.4157666 12.65302734 41.37499023 12.97207031 42.36328125 13.30078125 C43.63619019 13.72097534 43.63619019 13.72097534 44.93481445 14.1496582 C47 15 47 15 49 17 C49.20000163 19.80124682 49.27359946 22.50397806 49.26069641 25.30662537 C49.26452196 26.17601417 49.26834751 27.04540298 49.27228898 27.9411369 C49.28265649 30.87154431 49.27861975 33.80175715 49.2746582 36.73217773 C49.27900261 38.82610252 49.28418484 40.92002572 49.29014587 43.01394653 C49.30357637 48.71427877 49.30411005 54.41454488 49.30158257 60.11488986 C49.3005156 64.86666053 49.30538919 69.61841766 49.310188 74.37018543 C49.32129719 85.5766345 49.32171265 96.78305004 49.31567383 107.98950195 C49.30963163 119.56613017 49.32194813 131.14263693 49.3432439 142.71924442 C49.36083337 152.64452277 49.36686546 162.56976236 49.36360615 172.49505574 C49.36178891 178.42914031 49.36447326 184.36313826 49.37832069 190.29720879 C49.39085132 195.87612229 49.38900028 201.45484583 49.37590981 207.03375626 C49.37353404 209.08528392 49.37631421 211.13682475 49.38453293 213.18833733 C49.39491786 215.98124563 49.38696659 218.77350671 49.3742218 221.56639099 C49.38159609 222.38506021 49.38897037 223.20372944 49.39656812 224.04720682 C49.3439562 229.49856903 49.3439562 229.49856903 47.65613079 231.95913792 C45.11709059 233.55489997 42.51544034 234.26252528 39.63671875 235.0859375 C38.69406914 235.36142929 38.69406914 235.36142929 37.7323761 235.64248657 C35.71995439 236.22921828 33.70412372 236.80289446 31.6875 237.375 C29.06471344 238.12704885 26.44384046 238.88544029 23.82421875 239.6484375 C22.85227821 239.93013039 22.85227821 239.93013039 21.86070251 240.21751404 C16.14207326 241.90100849 10.57297265 243.90090697 4.99316406 246.00170898 C0.90852531 247.36403263 -2.79792528 248.20415185 -7 247 C-9.72353564 245.33449215 -11.99344717 243.4904482 -14 241 C-14 240.34 -14 239.68 -14 239 C-14.99 238.67 -15.98 238.34 -17 238 C-17 237.34 -17 236.68 -17 236 C-17.66 236 -18.32 236 -19 236 C-20.55078125 234.42578125 -20.55078125 234.42578125 -22.3125 232.3125 C-25.06112676 229.03267795 -27.953556 226.00612341 -31 223 C-32.01553238 221.97515539 -33.02980634 220.94906262 -34.04296875 219.921875 C-35.09112308 218.86456077 -36.13930038 217.80726933 -37.1875 216.75 C-37.72052734 216.20859375 -38.25355469 215.6671875 -38.80273438 215.109375 C-41.62507537 212.19242899 -41.62507537 212.19242899 -45 210 C-45 209.34 -45 208.68 -45 208 C-45.66 208 -46.32 208 -47 208 C-47 207.34 -47 206.68 -47 206 C-47.66 206 -48.32 206 -49 206 C-50.40234375 204.5390625 -50.40234375 204.5390625 -51.9375 202.625 C-53.91986617 200.16098476 -55.30699655 198.79533563 -58 197 C-58 196.34 -58 195.68 -58 195 C-58.89359222 194.59438339 -58.89359222 194.59438339 -59.80523682 194.18057251 C-61.98172573 193.00982981 -63.38542137 191.85681177 -65.11621094 190.11083984 C-65.69651062 189.5303891 -66.2768103 188.94993835 -66.87469482 188.35189819 C-67.48838928 187.72788116 -68.10208374 187.10386414 -68.734375 186.4609375 C-69.37240051 185.82008209 -70.01042603 185.17922668 -70.66778564 184.51895142 C-72.69994069 182.47562179 -74.72502218 180.42544018 -76.75 178.375 C-78.1284453 176.9865214 -79.50734636 175.5984951 -80.88671875 174.2109375 C-84.26311894 170.81251303 -87.63319288 167.40792746 -91 164 C-91.48210937 164.433125 -91.96421875 164.86625 -92.4609375 165.3125 C-93.09257812 165.869375 -93.72421875 166.42625 -94.375 167 C-95.00148437 167.556875 -95.62796875 168.11375 -96.2734375 168.6875 C-98 170 -98 170 -100 170 C-100 170.66 -100 171.32 -100 172 C-100.66 172 -101.32 172 -102 172 C-102 172.66 -102 173.32 -102 174 C-102.66 174 -103.32 174 -104 174 C-104 174.66 -104 175.32 -104 176 C-106.0806833 178.08683917 -108.36572471 179.68549137 -111 181 C-114.4375 180.8125 -114.4375 180.8125 -117 180 C-118.3442623 174.62295082 -118.3442623 174.62295082 -116.6875 171.625 C-115 170 -115 170 -113 170 C-112.67515625 169.18789063 -112.67515625 169.18789063 -112.34375 168.359375 C-110.53500003 165.18354656 -108.08276201 162.79271919 -105.5 160.25 C-105.00113281 159.74339844 -104.50226563 159.23679688 -103.98828125 158.71484375 C-100.25341139 155 -100.25341139 155 -98 155 C-97.814375 154.360625 -97.62875 153.72125 -97.4375 153.0625 C-96 151 -96 151 -92.75 149.9375 C-88.94904569 150.00084924 -88.32831002 150.09196844 -85.5625 152.3125 C-83 155 -83 155 -83 157 C-82.01 157.33 -81.02 157.66 -80 158 C-80 158.66 -80 159.32 -80 160 C-79.34 160 -78.68 160 -78 160 C-78 160.66 -78 161.32 -78 162 C-77.34 162 -76.68 162 -76 162 C-76 162.66 -76 163.32 -76 164 C-75.34 164 -74.68 164 -74 164 C-71.875 165.875 -71.875 165.875 -70 168 C-70 168.66 -70 169.32 -70 170 C-69.34 170 -68.68 170 -68 170 C-68 170.66 -68 171.32 -68 172 C-67.34 172 -66.68 172 -66 172 C-64.375 173.375 -64.375 173.375 -63 175 C-63 175.66 -63 176.32 -63 177 C-62.34 177 -61.68 177 -61 177 C-61 177.66 -61 178.32 -61 179 C-60.34 179 -59.68 179 -59 179 C-59 179.66 -59 180.32 -59 181 C-58.34 181 -57.68 181 -57 181 C-57 181.66 -57 182.32 -57 183 C-56.34 183 -55.68 183 -55 183 C-55 183.66 -55 184.32 -55 185 C-54.34 185 -53.68 185 -53 185 C-51.375 186.375 -51.375 186.375 -50 188 C-50 188.66 -50 189.32 -50 190 C-49.34 190 -48.68 190 -48 190 C-48 190.66 -48 191.32 -48 192 C-47.34 192 -46.68 192 -46 192 C-43.875 193.875 -43.875 193.875 -42 196 C-42 196.66 -42 197.32 -42 198 C-41.360625 198.268125 -40.72125 198.53625 -40.0625 198.8125 C-38 200 -38 200 -37 203 C-36.34 203 -35.68 203 -35 203 C-35 203.66 -35 204.32 -35 205 C-33.02 205.99 -33.02 205.99 -31 207 C-31 207.66 -31 208.32 -31 209 C-30.34 209 -29.68 209 -29 209 C-29 209.66 -29 210.32 -29 211 C-28.13036621 211.38067627 -28.13036621 211.38067627 -27.24316406 211.76904297 C-24.74927777 213.13758615 -23.10256164 214.66997769 -21.109375 216.6953125 C-20.04589844 217.76845703 -20.04589844 217.76845703 -18.9609375 218.86328125 C-18.23132813 219.60964844 -17.50171875 220.35601562 -16.75 221.125 C-16.00492187 221.87910156 -15.25984375 222.63320313 -14.4921875 223.41015625 C-12.6568658 225.26900772 -10.8263809 227.13237005 -9 229 C-8.71899632 222.65137903 -8.52762603 216.30438089 -8.39575195 209.95092773 C-8.34073751 207.79439392 -8.26589397 205.6382647 -8.17016602 203.4831543 C-7.07397511 190.6635758 -7.07397511 190.6635758 -11.49755859 179.13525391 C-14.06148053 176.39574936 -16.99105048 174.23427686 -20 172 C-20 171.34 -20 170.68 -20 170 C-20.5662207 169.75467529 -21.13244141 169.50935059 -21.71582031 169.2565918 C-26.3923492 166.6839011 -29.96994192 162.52834734 -33.75 158.8125 C-34.63816406 157.97396484 -35.52632813 157.13542969 -36.44140625 156.27148438 C-43.57666144 149.25131394 -43.57666144 149.25131394 -43.765625 145.01171875 C-43 142 -43 142 -40 140 C-37.53048339 139.82895282 -35.17406627 139.76732378 -32.70703125 139.8046875 C-31.41514893 139.80968262 -30.1232666 139.81467773 -28.79223633 139.81982422 C-27.14892334 139.83803223 -25.50561035 139.85624023 -23.8125 139.875 C-15.9853125 139.936875 -15.9853125 139.936875 -8 140 C-8.33 120.53 -8.66 101.06 -9 81 C-11.31 83.31 -13.62 85.62 -16 88 C-16.66 88 -17.32 88 -18 88 C-18 88.66 -18 89.32 -18 90 C-18.66 90 -19.32 90 -20 90 C-20.26039063 90.598125 -20.52078125 91.19625 -20.7890625 91.8125 C-22.09066101 94.16377472 -23.29819196 95.3175226 -25.375 97 C-29.81159402 100.72153857 -33.81179396 104.79656031 -37.78662109 109 C-42.48015077 113.834537 -42.48015077 113.834537 -46 114 C-47.485 113.505 -47.485 113.505 -49 113 C-50.51721022 109.96557956 -50.52600594 108.39620084 -50 105 C-47.87307499 101.99903695 -45.27178926 99.52717093 -42.6328125 96.9765625 C-41.88289032 96.23038666 -41.13296814 95.48421082 -40.36032104 94.71542358 C-38.77501814 93.14355144 -37.18254268 91.57888484 -35.58349609 90.02099609 C-33.12714996 87.62709531 -30.69292088 85.21237609 -28.26171875 82.79296875 C-26.71999139 81.26957598 -25.17706306 79.74739746 -23.6328125 78.2265625 C-22.53273361 77.13923325 -22.53273361 77.13923325 -21.41043091 76.02993774 C-20.7298764 75.36859833 -20.0493219 74.70725891 -19.34814453 74.02587891 C-18.74857941 73.43996979 -18.14901428 72.85406067 -17.53128052 72.25039673 C-16 71 -16 71 -14 71 C-13.5978125 70.1028125 -13.5978125 70.1028125 -13.1875 69.1875 C-12 67 -12 67 -10.44706726 65.64274597 C-8.55973956 63.50020563 -8.6356788 62.35422323 -8.65942383 59.52856445 C-8.65965042 58.62785721 -8.65987701 57.72714996 -8.66011047 56.79914856 C-8.67559433 55.83031235 -8.69107819 54.86147614 -8.70703125 53.86328125 C-8.71127609 52.86870407 -8.71552094 51.87412689 -8.71989441 50.84941101 C-8.73669847 47.67016625 -8.77435424 44.49155344 -8.8125 41.3125 C-8.82754459 39.15821227 -8.84123338 37.00391462 -8.85351562 34.84960938 C-8.88660756 29.56619033 -8.93682408 24.28314031 -9 19 C-9.66 19 -10.32 19 -11 19 C-11.226875 19.5775 -11.45375 20.155 -11.6875 20.75 C-13.34761639 23.59591381 -15.39187957 24.99841921 -18 27 C-19.67995887 28.6532676 -21.34475805 30.3219864 -23 32 C-24.3655556 33.35750398 -25.73113239 34.7149869 -27.09741211 36.07176208 C-29.18564763 38.14644809 -31.27107282 40.22395039 -33.35644531 42.30151367 C-34.45125363 43.39128054 -35.54695604 44.48014994 -36.64355469 45.56811523 C-38.24395072 47.15628535 -39.84100889 48.74774944 -41.4375 50.33984375 C-41.920979 50.81816147 -42.40445801 51.29647919 -42.90258789 51.78929138 C-45.3206298 54.20693966 -47.55244585 56.66783532 -49.66015625 59.35375977 C-50.43230469 60.22701904 -51.20445312 61.10027832 -52 62 C-52.99 62 -53.98 62 -55 62 C-55.33 62.99 -55.66 63.98 -56 65 C-58.9375 64.625 -58.9375 64.625 -62 64 C-63.53113923 60.93772154 -63.57133634 59.42801806 -63 56 C-60.60508125 53.02960321 -57.82260347 50.55659896 -55 48 C-52.21534192 45.25234734 -49.47439263 42.46374239 -46.73828125 39.66796875 C-45.59641694 38.50775071 -44.45448901 37.34759529 -43.3125 36.1875 C-42.44141602 35.2912793 -42.44141602 35.2912793 -41.55273438 34.37695312 C-40.07274424 32.87985327 -38.54017218 31.43511269 -37 30 C-36.34 30 -35.68 30 -35 30 C-34.7628125 29.43796875 -34.525625 28.8759375 -34.28125 28.296875 C-32.71052303 25.48105958 -30.78528536 23.52044584 -28.5 21.25 C-27.7059375 20.45078125 -26.911875 19.6515625 -26.09375 18.828125 C-24 17 -24 17 -22 17 C-22 16.34 -22 15.68 -22 15 C-21.34 15 -20.68 15 -20 15 C-19.76152344 14.43539062 -19.52304687 13.87078125 -19.27734375 13.2890625 C-17.72497876 10.50714848 -15.83368981 8.60516668 -13.5625 6.375 C-12.78003906 5.59898438 -11.99757813 4.82296875 -11.19140625 4.0234375 C-7.28549713 0.41691179 -5.26020734 -0.47496229 0 0 Z M3 12 C3 25.53 3 39.06 3 53 C7.49743967 49.14505171 11.78742339 45.35400893 15.93359375 41.1640625 C16.4563942 40.63984711 16.97919464 40.11563171 17.51783752 39.57553101 C19.16012345 37.9277213 20.7988665 36.27644099 22.4375 34.625 C23.56161467 33.49586045 24.68596174 32.36695222 25.81054688 31.23828125 C28.54305235 28.49484812 31.27239009 25.74830015 34 23 C31.80420818 20.80420818 30.67403801 20.44090665 27.74609375 19.59765625 C26.89080078 19.34693359 26.03550781 19.09621094 25.15429688 18.83789062 C24.25775391 18.58201172 23.36121094 18.32613281 22.4375 18.0625 C20.68579372 17.55477787 18.9344883 17.04567062 17.18359375 16.53515625 C16.01654907 16.20076538 16.01654907 16.20076538 14.82592773 15.85961914 C10.85880181 14.65285885 6.93381782 13.31127261 3 12 Z M35.53149414 35.37084961 C34.44699664 36.46231652 33.36507395 37.5563453 32.28515625 38.65234375 C31.71421738 39.22706924 31.1432785 39.80179474 30.55503845 40.39393616 C28.10107548 42.86432271 25.65298378 45.34049925 23.2043457 47.81616211 C21.42080197 49.61773821 19.63431376 51.41635647 17.84765625 53.21484375 C17.29239761 53.77840073 16.73713898 54.3419577 16.16505432 54.92259216 C12.22561712 58.88719144 12.22561712 58.88719144 10 60 C10 60.66 10 61.32 10 62 C9.34 62 8.68 62 8 62 C4.54591841 65.3388002 3.17381997 66.94840845 2.38095093 71.74517822 C2.35809727 73.16099112 2.36207648 74.57740742 2.38818359 75.99316406 C2.38251877 76.77111328 2.37685394 77.5490625 2.37101746 78.35058594 C2.35757917 80.9060982 2.37840805 83.46017612 2.3984375 86.015625 C2.39293604 87.79588796 2.38481028 89.57614458 2.37417603 91.35638428 C2.35132538 96.03119419 2.35550115 100.70553572 2.36798096 105.38037109 C2.38631704 112.87679825 2.37643222 120.37295452 2.34212112 127.8693161 C2.33599792 130.4897666 2.34929631 133.10963663 2.36410522 135.7300415 C2.36115896 137.32816724 2.35750531 138.92629188 2.35302734 140.52441406 C2.36231766 141.25585632 2.37160797 141.98729858 2.38117981 142.74090576 C2.36508179 144.76275635 2.36508179 144.76275635 2 148 C-1.33803691 150.22535794 -2.62819711 150.28978404 -6.54296875 150.4140625 C-7.61611328 150.45273438 -8.68925781 150.49140625 -9.79492188 150.53125 C-10.91447266 150.5621875 -12.03402344 150.593125 -13.1875 150.625 C-14.31865234 150.66367188 -15.44980469 150.70234375 -16.61523438 150.7421875 C-19.4099925 150.83652533 -22.20474278 150.92211652 -25 151 C-21.38709249 155.29247821 -17.70497206 159.4521984 -13.75 163.4375 C-12.47382813 164.73494141 -12.47382813 164.73494141 -11.171875 166.05859375 C-9.23699621 168.22214734 -9.23699621 168.22214734 -7 168 C-6.7525 168.61875 -6.505 169.2375 -6.25 169.875 C-5.17856271 172.13746494 -5.17856271 172.13746494 -3 173 C-1 174 -1 174 -0.09375 175.828125 C1.13609743 178.27025061 2.56297064 179.82938615 4.5 181.75 C5.41265625 182.67039062 5.41265625 182.67039062 6.34375 183.609375 C7.89484277 185.21434088 7.89484277 185.21434088 10 185 C10.2371875 185.56203125 10.474375 186.1240625 10.71875 186.703125 C12.28947697 189.51894042 14.21471464 191.47955416 16.5 193.75 C17.2940625 194.54921875 18.088125 195.3484375 18.90625 196.171875 C20.78783462 198.21923609 20.78783462 198.21923609 23 198 C23.268125 198.639375 23.53625 199.27875 23.8125 199.9375 C24.88667752 202.33131686 24.88667752 202.33131686 28 203 C28.67798963 204.3276115 29.34297741 205.66188807 30 207 C31.89773291 208.96333704 31.89773291 208.96333704 34.0625 210.75 C35.13177734 211.67039062 35.13177734 211.67039062 36.22265625 212.609375 C37.75514288 214.10270249 37.75514288 214.10270249 39 214 C39 154.27 39 94.54 39 33 C37.54976522 32.88455056 37.54976522 32.88455056 35.53149414 35.37084961 Z M3 195 C3 208.2 3 221.4 3 235 C10.08232744 233.06845615 17.12057867 231.11801651 24.125 228.9375 C24.97320312 228.68162109 25.82140625 228.42574219 26.6953125 228.16210938 C27.4996875 227.91138672 28.3040625 227.66066406 29.1328125 227.40234375 C29.85355957 227.18054443 30.57430664 226.95874512 31.31689453 226.73022461 C33.20513822 226.12516898 33.20513822 226.12516898 34 224 C33.34 224 32.68 224 32 224 C32 223.34 32 222.68 32 222 C30.66666667 220.33333333 30.66666667 220.33333333 29 219 C28.34 219 27.68 219 27 219 C27 218.34 27 217.68 27 217 C26.34 217 25.68 217 25 217 C25 216.34 25 215.68 25 215 C24.34 215 23.68 215 23 215 C23 214.34 23 213.68 23 213 C22.34 213 21.68 213 21 213 C21 212.34 21 211.68 21 211 C19.31194368 209.33122279 19.31194368 209.33122279 17.1875 207.625 C14.93749143 205.76433718 13.09649715 204.13127297 11.36328125 201.7734375 C10.91339844 201.18820312 10.46351563 200.60296875 10 200 C9.34 200 8.68 200 8 200 C8 199.34 8 198.68 8 198 C7.34 198 6.68 198 6 198 C6 197.34 6 196.68 6 196 C5.01 195.67 4.02 195.34 3 195 Z " fill="#E6E6E6" transform="translate(326,80)"/>
<path d="M0 0 C2.6328125 1.828125 2.6328125 1.828125 5.125 4.25 C5.95257813 5.03890625 6.78015625 5.8278125 7.6328125 6.640625 C8.80457031 7.80851562 8.80457031 7.80851562 10 9 C10.76054687 9.71671875 11.52109375 10.4334375 12.3046875 11.171875 C14 13 14 13 14 15 C14.66 15 15.32 15 16 15 C16 15.66 16 16.32 16 17 C16.56203125 17.2371875 17.1240625 17.474375 17.703125 17.71875 C20.51894042 19.28947697 22.47955416 21.21471464 24.75 23.5 C25.54921875 24.2940625 26.3484375 25.088125 27.171875 25.90625 C29 28 29 28 29 30 C29.66 30 30.32 30 31 30 C31 30.66 31 31.32 31 32 C31.55917114 32.23221756 32.11834229 32.46443512 32.69445801 32.70368958 C35.59978386 34.33723353 37.55748923 36.3562136 39.88867188 38.7409668 C40.59679771 39.46070175 40.59679771 39.46070175 41.31922913 40.19497681 C42.34005918 41.233414 43.35865984 42.27404651 44.3752594 43.3166256 C45.98392013 44.96476113 47.60004376 46.60521888 49.21862793 48.24360657 C53.81823488 52.90122448 58.40790466 57.56845479 62.98291016 62.25024414 C65.78441598 65.11605916 68.59787574 67.96966156 71.41932678 70.81583595 C72.49253056 71.90332733 73.56103444 72.99547731 74.6247406 74.09226036 C76.10906548 75.62211542 77.60804101 77.13602465 79.11132812 78.6472168 C79.9608606 79.51388474 80.81039307 80.38055267 81.68566895 81.27348328 C83.81923582 83.24583812 83.81923582 83.24583812 86.24304199 82.89704895 C88.18488087 82.12460746 88.18488087 82.12460746 89 80 C89.66 80 90.32 80 91 80 C91 79.34 91 78.68 91 78 C91.66 78 92.32 78 93 78 C93 77.34 93 76.68 93 76 C94.390625 74.6328125 94.390625 74.6328125 96.25 73.125 C98.44182673 71.3372776 100.22475931 69.73437536 102.0625 67.5625 C104 66 104 66 107.1875 66.1875 C110 67 110 67 111 68 C111.56259329 71.44969993 111.74325341 73.92106572 109.70263672 76.88330078 C107.85539432 78.87172046 105.9339796 80.72408288 103.9375 82.5625 C103.28072266 83.19607422 102.62394531 83.82964844 101.94726562 84.48242188 C99.99161293 86.35329751 98.00601808 88.18332737 96 90 C95.35925537 90.58322021 94.71851074 91.16644043 94.05834961 91.76733398 C93.44870361 92.30817627 92.83905762 92.84901855 92.2109375 93.40625 C91.67130371 93.88513672 91.13166992 94.36402344 90.57568359 94.85742188 C88.15590413 96.61208067 85.93910058 96.93164882 83 97 C82.34 96.67 81.68 96.34 81 96 C81 95.34 81 94.68 81 94 C80.34 94 79.68 94 79 94 C79 93.34 79 92.68 79 92 C78.34 92 77.68 92 77 92 C77 91.34 77 90.68 77 90 C76.34 90 75.68 90 75 90 C75 89.34 75 88.68 75 88 C74.44716339 87.77280777 73.89432678 87.54561554 73.32473755 87.3115387 C70.31416153 85.61307302 68.23957286 83.47073737 65.80419922 81.01538086 C65.29964203 80.50950943 64.79508484 80.003638 64.27523804 79.48243713 C62.61373667 77.81446082 60.95932491 76.13962686 59.3046875 74.46484375 C58.14985307 73.30373732 56.99450091 72.1431456 55.83865356 70.98304749 C52.80039516 67.93149838 49.76775744 64.87442926 46.73669434 61.81573486 C41.8792052 56.91508857 37.0149474 52.02118303 32.14746475 47.13046455 C30.44665093 45.41940933 28.74927986 43.70499226 27.05221558 41.99021912 C26.01392915 40.94510682 24.97553382 39.90010271 23.93701172 38.85522461 C23.02974335 37.93970322 22.12247498 37.02418182 21.18771362 36.08091736 C19.18006233 33.96819729 19.18006233 33.96819729 17 33 C17 32.34 17 31.68 17 31 C15.515 30.505 15.515 30.505 14 30 C12.83151386 28.61044891 11.66354715 27.21806286 10.57421875 25.765625 C9.10221689 24.11464524 7.60542874 22.79284279 5.90161133 21.38964844 C4.94407959 20.60106445 3.98654785 19.81248047 3 19 C2.77059475 25.38560395 2.61370456 31.77013572 2.50561523 38.15893555 C2.46053146 40.32893576 2.39924319 42.49866525 2.32104492 44.66772461 C1.46195936 56.90073218 1.46195936 56.90073218 4.86767578 68.30517578 C7.12714614 70.56464614 9.3505816 72.22956325 12 74 C13.69246863 75.64045893 15.35863404 77.308411 17 79 C18.61805211 80.55395457 20.23921029 82.10468069 21.86328125 83.65234375 C23.68008508 85.41365248 25.49648002 87.17538308 27.3125 88.9375 C28.70952148 90.25911133 28.70952148 90.25911133 30.13476562 91.60742188 C31.01455078 92.46787109 31.89433594 93.32832031 32.80078125 94.21484375 C33.60684814 94.98948975 34.41291504 95.76413574 35.2434082 96.56225586 C37.4419948 99.6133868 37.50505483 101.31631403 37 105 C34.35751255 107.64248745 33.01770103 107.30265536 29.328125 107.4140625 C28.18859375 107.45273438 27.0490625 107.49140625 25.875 107.53125 C24.67875 107.5621875 23.4825 107.593125 22.25 107.625 C21.06921875 107.66367188 19.8884375 107.70234375 18.671875 107.7421875 C13.44280698 107.90706802 8.23281703 108 3 108 C3 127.14 3 146.28 3 166 C5.64 163.36 8.28 160.72 11 158 C14.9375 154.625 14.9375 154.625 16.65234375 153.2265625 C18.13979147 152.02079718 18.13979147 152.02079718 19 150 C19.66 150 20.32 150 21 150 C21 149.34 21 148.68 21 148 C21.66 148 22.32 148 23 148 C23 147.34 23 146.68 23 146 C23.66 146 24.32 146 25 146 C25 145.34 25 144.68 25 144 C25.66 144 26.32 144 27 144 C27 143.34 27 142.68 27 142 C27.66 142 28.32 142 29 142 C29 141.34 29 140.68 29 140 C30.47389468 138.72262461 31.95452327 137.45093393 33.48828125 136.24609375 C35.10483507 135.00041884 35.10483507 135.00041884 36.5 133.125 C38 132 38 132 41.1875 132.3125 C42.115625 132.539375 43.04375 132.76625 44 133 C44.84059636 135.68990836 45.27236422 137.2501689 45 140 C43.12998943 143.10601071 40.58639413 145.48131252 38 148 C37.16855469 148.84304687 36.33710938 149.68609375 35.48046875 150.5546875 C33.00533651 153.05579564 30.50619138 155.53007184 28 158 C26.71222656 159.30324219 26.71222656 159.30324219 25.3984375 160.6328125 C23.5661706 162.44120621 21.76234394 164.09351177 19.75 165.6875 C16.98257806 167.7042322 16.98257806 167.7042322 16 170 C15.34 170 14.68 170 14 170 C14 170.66 14 171.32 14 172 C12.35546875 173.62109375 12.35546875 173.62109375 10.1875 175.4375 C8.78656679 176.61897919 7.3904923 177.8062504 6 179 C5.46988815 179.43516434 4.93977631 179.87032867 4.39360046 180.31867981 C2.5563827 182.53520557 2.63645985 183.79984118 2.65942383 186.6550293 C2.65965042 187.59577805 2.65987701 188.53652679 2.66011047 189.50578308 C2.67559433 190.51836685 2.69107819 191.53095062 2.70703125 192.57421875 C2.71339851 194.13267265 2.71339851 194.13267265 2.71989441 195.72261047 C2.73670151 199.04450276 2.77435804 202.36579075 2.8125 205.6875 C2.82754418 207.93814229 2.84123305 210.18879407 2.85351562 212.43945312 C2.88661164 217.95984197 2.93683131 223.47987782 3 229 C3.5347998 228.45472656 4.06959961 227.90945313 4.62060547 227.34765625 C7.03355351 224.89327746 9.45414031 222.44657444 11.875 220 C12.71675781 219.14148438 13.55851562 218.28296875 14.42578125 217.3984375 C15.23144531 216.58632813 16.03710938 215.77421875 16.8671875 214.9375 C17.61081543 214.18339844 18.35444336 213.42929687 19.12060547 212.65234375 C21 211 21 211 23 211 C23 210.34 23 209.68 23 209 C23.66 209 24.32 209 25 209 C25 208.34 25 207.68 25 207 C25.66 207 26.32 207 27 207 C27.226875 206.443125 27.45375 205.88625 27.6875 205.3125 C29.37550036 202.33840412 31.46676517 200.27991135 34 198 C34.66 198 35.32 198 36 198 C36 197.34 36 196.68 36 196 C37.875 193.875 37.875 193.875 40 192 C40.66 192 41.32 192 42 192 C42 191.34 42 190.68 42 190 C42.66 190 43.32 190 44 190 C44 189.34 44 188.68 44 188 C45.375 186.375 45.375 186.375 47 185 C47.66 185 48.32 185 49 185 C49 184.34 49 183.68 49 183 C55.875 183.875 55.875 183.875 57 185 C57.30172745 188.39443386 57.35204436 190.39192338 55.625 193.375 C55.08875 193.91125 54.5525 194.4475 54 195 C53.34 195 52.68 195 52 195 C51.67 195.99 51.34 196.98 51 198 C49.49168396 199.47718811 49.49168396 199.47718811 47.54077148 201.07055664 C42.48170732 205.36588244 37.94555389 210.09237853 33.34765625 214.87109375 C31.50186875 216.76358154 29.65503447 218.6549858 27.80664062 220.54492188 C24.91963317 223.49797329 22.03947189 226.45675068 19.18383789 229.44018555 C17.30640946 231.40073517 15.41751271 233.34869285 13.51402283 235.28395081 C11.73074117 237.09714677 9.96449208 238.92729614 8.21803284 240.77598572 C1.48960766 247.53669489 1.48960766 247.53669489 -3.89599609 247.6184082 C-7.71018112 247.24279223 -11.12807539 246.1754873 -14.6875 244.75 C-19.36348307 242.96271311 -23.98223801 241.37832999 -28.8125 240.0625 C-34.36401994 238.51866074 -39.81091037 236.77067511 -45.25 234.875 C-45.98968018 234.62113525 -46.72936035 234.36727051 -47.49145508 234.10571289 C-52.75838832 232.24161168 -52.75838832 232.24161168 -55 230 C-55.20437271 227.19902251 -55.28240027 224.49609891 -55.27415466 221.69337463 C-55.27939134 220.82398583 -55.28462802 219.95459702 -55.29002339 219.0588631 C-55.30509603 216.12847039 -55.30573012 213.19825117 -55.30639648 210.26782227 C-55.31401303 208.17389631 -55.32243965 206.07997316 -55.33161926 203.98605347 C-55.3536195 198.2857337 -55.36237044 192.58546758 -55.36744571 186.88511014 C-55.37108241 183.3274981 -55.37731882 179.76990027 -55.3844471 176.21229362 C-55.40895966 163.81168878 -55.42199764 151.41112588 -55.42553711 139.01049805 C-55.42917499 127.433802 -55.45908398 115.85737066 -55.50094169 104.28075558 C-55.53557637 94.35547582 -55.55108436 84.43028408 -55.55178314 74.50494426 C-55.55257822 68.5707827 -55.56142238 62.63689059 -55.58978081 56.70279121 C-55.615845 51.12378794 -55.618232 45.54527979 -55.60212517 39.96624374 C-55.60030143 37.91470579 -55.60708405 35.86314013 -55.62294388 33.81166267 C-55.64322779 31.01838252 -55.63295783 28.22686378 -55.61473083 25.43360901 C-55.6279308 24.61493979 -55.64113077 23.79627056 -55.65473074 22.95279318 C-55.62082577 20.6900568 -55.62082577 20.6900568 -55 17 C-51.63274531 14.20157153 -47.76785383 13.09619049 -43.625 11.75 C-42.99795166 11.54528076 -42.37090332 11.34056152 -41.72485352 11.12963867 C-32.65498807 8.1982151 -23.5166088 5.47637331 -14.38623047 2.74072266 C-12.47018675 2.1459532 -10.57613594 1.48055018 -8.69140625 0.79296875 C-5.53694963 -0.13642848 -3.27029423 -0.43372603 0 0 Z M-17.1875 14.1875 C-17.89841797 14.40946045 -18.60933594 14.6314209 -19.34179688 14.86010742 C-26.29671096 17.05473149 -33.15442481 19.48639036 -40 22 C-40 22.66 -40 23.32 -40 24 C-38.59820543 25.41741094 -38.59820543 25.41741094 -36.71484375 26.91015625 C-33.13118878 29.95669741 -29.75205031 33.15792944 -26.44140625 36.49609375 C-25.96254974 36.97825348 -25.48369324 37.46041321 -24.99032593 37.95718384 C-23.51239016 39.44866651 -22.03703886 40.94265934 -20.5625 42.4375 C-18.58748189 44.43904113 -16.60920045 46.43727427 -14.62890625 48.43359375 C-13.76338135 49.31072021 -12.89785645 50.18784668 -12.00610352 51.09155273 C-10.34072418 53.11487536 -10.34072418 53.11487536 -9 53 C-9 39.47 -9 25.94 -9 12 C-11.6954926 12 -14.60744264 13.38048897 -17.1875 14.1875 Z M-45 33 C-45 92.73 -45 152.46 -45 214 C-42.69 212.02 -40.38 210.04 -38 208 C-36.865625 207.0925 -35.73125 206.185 -34.5625 205.25 C-33.716875 204.5075 -32.87125 203.765 -32 203 C-32 202.34 -32 201.68 -32 201 C-31.13375 200.62875 -31.13375 200.62875 -30.25 200.25 C-27.67060021 198.81700012 -25.93878408 197.21575324 -24 195 C-24 194.34 -24 193.68 -24 193 C-23.34 193 -22.68 193 -22 193 C-22 192.34 -22 191.68 -22 191 C-21.34 191 -20.68 191 -20 191 C-20 190.34 -20 189.68 -20 189 C-18.02 188.01 -18.02 188.01 -16 187 C-16 186.34 -16 185.68 -16 185 C-15.34 185 -14.68 185 -14 185 C-14 184.34 -14 183.68 -14 183 C-13.0409375 182.566875 -13.0409375 182.566875 -12.0625 182.125 C-9.84793921 181.17176549 -9.84793921 181.17176549 -9 179 C-8.88828625 176.54478204 -8.83536248 174.11649009 -8.82641602 171.66040039 C-8.819729 170.90414871 -8.81304199 170.14789703 -8.80615234 169.36872864 C-8.79208912 167.72415346 -8.78019912 166.07955862 -8.77020454 164.43495369 C-8.75381843 161.8337146 -8.73058223 159.23262144 -8.70530701 156.63145447 C-8.63446088 149.23492681 -8.5743637 141.83833983 -8.52319336 134.44165039 C-8.49143169 129.9199828 -8.45016424 125.39848309 -8.40299797 120.87695122 C-8.38696184 119.15177869 -8.37464773 117.42656747 -8.36609077 115.70134163 C-8.35395959 113.29038535 -8.3298198 110.87982503 -8.30297852 108.46899414 C-8.30238937 107.75356445 -8.30180023 107.03813477 -8.30119324 106.30102539 C-8.2472094 102.64850138 -8.08442872 101.12664307 -6 98 C-3.47802734 97.56762695 -3.47802734 97.56762695 -0.3359375 97.48828125 C0.78554687 97.45283203 1.90703125 97.41738281 3.0625 97.38085938 C4.238125 97.35830078 5.41375 97.33574219 6.625 97.3125 C8.40003906 97.26125977 8.40003906 97.26125977 10.2109375 97.20898438 C13.1405306 97.12629425 16.0698164 97.05721286 19 97 C18.21654285 95.82780457 17.42297164 94.66236332 16.625 93.5 C16.18414062 92.8503125 15.74328125 92.200625 15.2890625 91.53125 C14.86367187 91.0259375 14.43828125 90.520625 14 90 C13.34 90 12.68 90 12 90 C12 89.34 12 88.68 12 88 C10.31194368 86.33122279 10.31194368 86.33122279 8.1875 84.625 C5.93749143 82.76433718 4.09649715 81.13127297 2.36328125 78.7734375 C1.91339844 78.18820313 1.46351563 77.60296875 1 77 C0.34 77 -0.32 77 -1 77 C-1 76.34 -1 75.68 -1 75 C-2.62092592 73.39940707 -2.62092592 73.39940707 -4.6875 71.75 C-7.35349133 69.49924272 -9.71010091 67.29950455 -11.875 64.5625 C-12.57625 63.716875 -13.2775 62.87125 -14 62 C-14.66 62 -15.32 62 -16 62 C-16 61.34 -16 60.68 -16 60 C-17.62092592 58.39940707 -17.62092592 58.39940707 -19.6875 56.75 C-23.21875268 53.75678407 -26.03382796 50.55940644 -29 47 C-30.93909968 45.22180433 -32.92912263 43.51649063 -34.93359375 41.8125 C-37.64562909 39.43370151 -40.14866774 36.88008241 -42.65234375 34.28515625 C-43.81024746 32.88497893 -43.81024746 32.88497893 -45 33 Z M-10 194 C-10 194.66 -10 195.32 -10 196 C-10.66 196 -11.32 196 -12 196 C-12 196.66 -12 197.32 -12 198 C-12.66 198 -13.32 198 -14 198 C-14 198.66 -14 199.32 -14 200 C-15.98 200.99 -15.98 200.99 -18 202 C-18 202.66 -18 203.32 -18 204 C-18.99 204.33 -19.98 204.66 -21 205 C-21 205.66 -21 206.32 -21 207 C-21.61875 207.2475 -22.2375 207.495 -22.875 207.75 C-25.35068687 209.20628639 -25.95125002 210.37812506 -27 213 C-27.66 213 -28.32 213 -29 213 C-29 213.66 -29 214.32 -29 215 C-29.61875 215.2475 -30.2375 215.495 -30.875 215.75 C-33.13746494 216.82143729 -33.13746494 216.82143729 -34 219 C-35.24508396 221.49016793 -36.46716796 221.98686718 -39 223 C-39 223.99 -39 224.98 -39 226 C-35.21165112 227.28751357 -31.42135154 228.56909069 -27.62915039 229.84521484 C-26.33953841 230.28011228 -25.05046971 230.71662422 -23.76196289 231.15478516 C-21.9091547 231.78452574 -20.05421111 232.40797257 -18.19921875 233.03125 C-17.08377686 233.40830078 -15.96833496 233.78535156 -14.8190918 234.17382812 C-12.00979029 235.1406174 -12.00979029 235.1406174 -9 235 C-9 221.47 -9 207.94 -9 194 C-9.33 194 -9.66 194 -10 194 Z " fill="#E9E9E9" transform="translate(180,80)"/>
<path d="M0 0 C3.63 0 7.26 0 11 0 C11 0.66 11 1.32 11 2 C11.66 2 12.32 2 13 2 C14.77643163 4.23753535 16.43237932 6.47222773 18.0625 8.8125 C18.52205078 9.45509766 18.98160156 10.09769531 19.45507812 10.75976562 C21.41918817 13.5429759 22.91267621 15.73802864 24 19 C24.66 19 25.32 19 26 19 C26.66 20.65 27.32 22.3 28 24 C28.66 24 29.32 24 30 24 C30.33 25.32 30.66 26.64 31 28 C31.66 28 32.32 28 33 28 C33.33 18.76 33.66 9.52 34 0 C37.63 0 41.26 0 45 0 C45.16781623 6.74423374 45.32835511 13.48858685 45.48217773 20.2331543 C45.53551886 22.52714692 45.59084188 24.82109437 45.64819336 27.11499023 C45.73032438 30.41380064 45.80530679 33.71270832 45.87890625 37.01171875 C45.90594131 38.03585373 45.93297638 39.05998871 45.96083069 40.11515808 C45.98092697 41.07577652 46.00102325 42.03639496 46.02172852 43.02612305 C46.04171402 43.86773483 46.06169952 44.70934662 46.08229065 45.57646179 C45.99502786 48.14643438 45.57027984 50.49636347 45 53 C36.52532991 54.12484467 36.52532991 54.12484467 33.16259766 51.64501953 C31.54389711 49.69518565 30.16829891 47.70337239 28.8125 45.5625 C27.80143282 44.08809465 26.78971766 42.61413342 25.77734375 41.140625 C25.30280762 40.42583984 24.82827148 39.71105469 24.33935547 38.97460938 C22.18312541 35.79568326 19.73582632 32.86390728 17.3046875 29.89453125 C15.79569626 27.7033314 14.90468059 25.49433363 14 23 C13.34 23 12.68 23 12 23 C12 32.9 12 42.8 12 53 C8.37 53 4.74 53 1 53 C0 52 0 52 -0.12025452 49.90562439 C-0.1169236 48.52329369 -0.1169236 48.52329369 -0.11352539 47.11303711 C-0.11344986 46.07203354 -0.11337433 45.03102997 -0.11329651 43.95848083 C-0.10813522 42.8262056 -0.10297394 41.69393036 -0.09765625 40.52734375 C-0.0962413 39.37456436 -0.09482635 38.22178497 -0.09336853 37.03407288 C-0.08775005 33.33518936 -0.07519442 29.63636536 -0.0625 25.9375 C-0.05748738 23.43684983 -0.05292406 20.93619871 -0.04882812 18.43554688 C-0.03777462 12.29034149 -0.0204976 6.14518085 0 0 Z " fill="#EBEBEB" transform="translate(77,367)"/>
<path d="M0 0 C12.54 0 25.08 0 38 0 C38 3.63 38 7.26 38 11 C29.42 11 20.84 11 12 11 C12 13.97 12 16.94 12 20 C12.65484375 19.91621094 13.3096875 19.83242188 13.984375 19.74609375 C21.17750294 18.94347072 27.80333448 19.23800012 35 20 C35 23.63 35 27.26 35 31 C27.41 31 19.82 31 12 31 C12 34.3 12 37.6 12 41 C20.58 41 29.16 41 38 41 C39 51 39 51 38 53 C25.46 53 12.92 53 0 53 C0 35.51 0 18.02 0 0 Z " fill="#E9E9E9" transform="translate(134,367)"/>
<path d="M0 0 C4.77422917 -0.52974324 9.24760776 -0.79734581 14 0 C16.99693569 2.5577296 18.61016257 5.3334765 20 9 C20 9.66 20 10.32 20 11 C20.66 11 21.32 11 22 11 C22.33 11.99 22.66 12.98 23 14 C23.66 14.33 24.32 14.66 25 15 C25.27328125 14.28457031 25.5465625 13.56914062 25.828125 12.83203125 C27.87054304 7.89618766 29.86444956 3.5075347 34 0 C38.7764966 -0.86133545 43.20093548 -0.59905105 48 0 C46.50171478 4.0020863 44.67800937 6.67277624 42 10 C40.95548562 11.97711651 39.94301862 13.97250996 39 16 C38.34 16 37.68 16 37 16 C36.855625 16.61875 36.71125 17.2375 36.5625 17.875 C36 20 36 20 35 22 C34.34 22 33.68 22 33 22 C32.1301842 23.71419442 32.1301842 23.71419442 32 26 C33.60961289 28.76724189 33.60961289 28.76724189 35.875 31.5 C40.46144068 37.31694915 40.46144068 37.31694915 41 41 C41.66 41 42.32 41 43 41 C44.5078125 42.86328125 44.5078125 42.86328125 46.125 45.3125 C46.66382813 46.11300781 47.20265625 46.91351563 47.7578125 47.73828125 C49 50 49 50 49 53 C44.05364038 53.96218811 39.90567285 54.28216449 35 53 C30.45209728 49.01788447 27.61468474 43.3619111 25 38 C25 37.34 25 36.68 25 36 C24.34 36 23.68 36 23 36 C22.731875 36.71800781 22.46375 37.43601562 22.1875 38.17578125 C20.99151863 41.02017115 19.59642689 43.54940456 18 46.1875 C17.484375 47.04730469 16.96875 47.90710938 16.4375 48.79296875 C15 51 15 51 13 53 C9.9609375 53.1953125 9.9609375 53.1953125 6.375 53.125 C4.59222656 53.09792969 4.59222656 53.09792969 2.7734375 53.0703125 C1.40058594 53.03550781 1.40058594 53.03550781 0 53 C0 49.79164908 0.35821014 49.05882056 2.01171875 46.453125 C2.65463867 45.4321875 2.65463867 45.4321875 3.31054688 44.390625 C3.76494141 43.68421875 4.21933594 42.9778125 4.6875 42.25 C5.12255859 41.5590625 5.55761719 40.868125 6.00585938 40.15625 C8.17908481 36.73060279 10.41654905 33.44692335 12.89453125 30.234375 C15.26993506 27.3513265 15.26993506 27.3513265 14.73388672 24.96655273 C13.66855352 22.1118425 12.03440443 19.82156073 10.3125 17.3125 C9.59707031 16.25933594 8.88164062 15.20617187 8.14453125 14.12109375 C7.43683594 13.09113281 6.72914063 12.06117188 6 11 C4.82937699 9.29437529 3.66218758 7.58638362 2.5 5.875 C2.0153125 5.17117188 1.530625 4.46734375 1.03125 3.7421875 C0 2 0 2 0 0 Z " fill="#E5E5E5" transform="translate(178,367)"/>
<path d="M0 0 C2.9375 0.875 2.9375 0.875 4.9375 3.875 C5.18359566 5.86835003 5.18359566 5.86835003 5.17800903 8.18400574 C5.18075836 9.06320175 5.18350769 9.94239777 5.18634033 10.84823608 C5.17914978 11.80992706 5.17195923 12.77161804 5.16455078 13.76245117 C5.16484283 14.77726059 5.16513489 15.79207001 5.16543579 16.83763123 C5.16404049 20.19783018 5.14846972 23.55780844 5.1328125 26.91796875 C5.12908309 29.24538553 5.12623578 31.57280387 5.12423706 33.90022278 C5.11659498 40.03067345 5.0969415 46.16102959 5.0748291 52.29144287 C5.05438308 58.5451937 5.045238 64.79895977 5.03515625 71.05273438 C5.01369621 83.32686448 4.97955328 95.60092439 4.9375 107.875 C4.2775 107.875 3.6175 107.875 2.9375 107.875 C2.9375 108.535 2.9375 109.195 2.9375 109.875 C0.2975 109.875 -2.3425 109.875 -5.0625 109.875 C-6.21793773 107.56412455 -6.19298837 106.24017251 -6.20294189 103.66847229 C-6.20865204 102.78657227 -6.21436218 101.90467224 -6.22024536 100.99604797 C-6.22136322 100.02612411 -6.22248108 99.05620026 -6.22363281 98.05688477 C-6.22859772 97.03728668 -6.23356262 96.0176886 -6.23867798 94.9671936 C-6.25332155 91.58359104 -6.2601047 88.20003533 -6.265625 84.81640625 C-6.27137393 82.47232562 -6.27713169 80.12824501 -6.28289795 77.78416443 C-6.29341371 72.86546611 -6.29925285 67.94678416 -6.30273438 63.02807617 C-6.3082252 56.71484652 -6.33226352 50.40183189 -6.36070633 44.08866978 C-6.37929632 39.24606181 -6.38453633 34.40350605 -6.38607025 29.5608654 C-6.38910473 27.23277547 -6.39715982 24.90468662 -6.41025543 22.57663155 C-6.42724239 19.32508928 -6.42545377 16.07407795 -6.41894531 12.82250977 C-6.4281601 11.85461014 -6.43737488 10.88671051 -6.4468689 9.88948059 C-6.44129974 9.00476074 -6.43573059 8.12004089 -6.42999268 7.20851135 C-6.43145924 6.43956826 -6.4329258 5.67062517 -6.4344368 4.87838078 C-5.69607306 0.90129725 -3.90196645 -0.15926394 0 0 Z " fill="#E8E8E8" transform="translate(154.0625,148.125)"/>
<path d="M0 0 C2.40514075 2.40514075 2.25075414 2.93272578 2.25396729 6.21325684 C2.26242676 7.53827461 2.26242676 7.53827461 2.27105713 8.89006042 C2.26700867 9.86155533 2.26296021 10.83305023 2.25878906 11.83398438 C2.2622937 12.85518875 2.26579834 13.87639313 2.26940918 14.92854309 C2.27823915 18.31701377 2.27237283 21.70527706 2.265625 25.09375 C2.26697128 27.44022665 2.26891151 29.78670302 2.27142334 32.13317871 C2.27437632 37.05609792 2.27007133 41.97894466 2.26074219 46.90185547 C2.24934761 53.22411619 2.25590615 59.54620712 2.26788712 65.86846161 C2.27510099 70.71532479 2.27281995 75.56214747 2.26763153 80.40901184 C2.26629373 82.7407076 2.26794729 85.07240699 2.27259064 87.40409851 C2.27764809 90.65817053 2.26995654 93.91196441 2.25878906 97.16601562 C2.26283752 98.13751053 2.26688599 99.10900543 2.27105713 100.10993958 C2.26541748 100.99328476 2.25977783 101.87662994 2.25396729 102.78674316 C2.25321323 103.55660805 2.25245918 104.32647293 2.25168228 105.11966705 C2 107 2 107 0 109 C-3.625 109.125 -3.625 109.125 -7 109 C-7 108.34 -7 107.68 -7 107 C-7.66 107 -8.32 107 -9 107 C-9.09256105 93.36157066 -9.16369448 79.72321567 -9.20724869 66.08453655 C-9.22814945 59.75196449 -9.25651293 53.41960684 -9.30175781 47.0871582 C-9.34512613 40.97933143 -9.36911834 34.87171127 -9.37950897 28.76374245 C-9.38691652 26.43004921 -9.40138114 24.09636766 -9.42292023 21.76276207 C-9.45183373 18.50133948 -9.45596097 15.24077757 -9.45410156 11.97924805 C-9.46848267 11.00820633 -9.48286377 10.03716461 -9.49768066 9.03669739 C-9.45733414 2.52383812 -9.45733414 2.52383812 -7.13568115 -0.13542175 C-4.33308089 -1.26998588 -2.83385468 -0.9694766 0 0 Z " fill="#E1E1E1" transform="translate(350,149)"/>
<path d="M0 0 C2.97 0 5.94 0 9 0 C9.02505615 1.08941895 9.0501123 2.17883789 9.07592773 3.30126953 C9.17041915 7.36046198 9.27053637 11.41949988 9.37231445 15.47851562 C9.41550598 17.23205946 9.45719155 18.98564108 9.49731445 20.73925781 C9.55540124 23.26639165 9.61898299 25.79333804 9.68359375 28.3203125 C9.70030624 29.09867462 9.71701874 29.87703674 9.73423767 30.6789856 C9.8472986 34.87551289 10.19205414 38.86538737 11 43 C16.85647614 44.77785883 20.99462232 45.40125479 27 44 C29.93087207 41.74548302 30.82814288 40.51557135 32 37 C32.1539263 34.19839498 32.25738045 31.41701575 32.31640625 28.61328125 C32.33718735 27.79627243 32.35796844 26.97926361 32.37937927 26.13749695 C32.44473079 23.52924966 32.50369273 20.92090225 32.5625 18.3125 C32.60569892 16.54360946 32.64931365 14.77472903 32.69335938 13.00585938 C32.80039743 8.67067537 32.90170544 4.33539071 33 0 C35.64 0 38.28 0 41 0 C41.09938156 5.55007795 41.1717096 11.09963018 41.21972656 16.65039062 C41.23975767 18.53589916 41.26699073 20.42134623 41.30175781 22.30664062 C41.35065272 25.02749862 41.37305382 27.74753056 41.390625 30.46875 C41.41127014 31.30241089 41.43191528 32.13607178 41.45318604 32.99499512 C41.45563489 39.48119894 39.93383121 44.77127 35.49957275 49.65124512 C31.14543173 53.56747323 26.01391096 53.30713897 20.5 53.25 C19.38044922 53.26160156 19.38044922 53.26160156 18.23828125 53.2734375 C14.0421752 53.25858403 10.83148212 52.91574106 7 51 C7 50.34 7 49.68 7 49 C6.34 49 5.68 49 5 49 C5 48.34 5 47.68 5 47 C4.34 47 3.68 47 3 47 C0.53308627 42.20033801 0.6541105 37.59389682 0.5859375 32.32421875 C0.56657135 31.3990596 0.5472052 30.47390045 0.5272522 29.52070618 C0.46764746 26.57639683 0.42114752 23.63204798 0.375 20.6875 C0.33680264 18.68683225 0.29774988 16.68618064 0.2578125 14.68554688 C0.16196159 9.7904962 0.07786 4.89536855 0 0 Z " fill="#E2E2E2" transform="translate(336,367)"/>
<path d="M0 0 C15.18 0 30.36 0 46 0 C46 3.63 46 7.26 46 11 C40.06 11 34.12 11 28 11 C28 24.86 28 38.72 28 53 C24.37 53 20.74 53 17 53 C17 39.14 17 25.28 17 11 C11.39 11 5.78 11 0 11 C0 7.37 0 3.74 0 0 Z " fill="#EEEEEE" transform="translate(230,367)"/>
<path d="M0 0 C2.05078125 0.03255208 4.1015625 0.06510417 6.15234375 0.09765625 C8.58249583 5.31798294 10.69668541 10.53282152 12.58984375 15.97265625 C14.4770567 21.36053274 16.59860965 26.53617927 19.0390625 31.6953125 C20.16834277 34.13218045 21.16378487 36.60096791 22.15234375 39.09765625 C23.80695216 34.82947946 25.46098258 30.56107928 27.11450195 26.29248047 C27.67587059 24.84352726 28.23739096 23.39463282 28.79907227 21.94580078 C29.61124952 19.85074442 30.42286188 17.75546994 31.234375 15.66015625 C31.4813765 15.02335937 31.72837799 14.3865625 31.98286438 13.73046875 C33.73751591 9.197757 35.451516 4.65084493 37.15234375 0.09765625 C40.12234375 0.09765625 43.09234375 0.09765625 46.15234375 0.09765625 C45.6150848 3.4747125 45.04169752 6.79434225 44.15234375 10.09765625 C43.49234375 10.09765625 42.83234375 10.09765625 42.15234375 10.09765625 C41.97795776 11.39159302 41.97795776 11.39159302 41.80004883 12.71166992 C41.14189743 16.15226616 40.12358204 19.03924602 38.7890625 22.2734375 C38.31404297 23.43166016 37.83902344 24.58988281 37.34960938 25.78320312 C36.85138672 26.98009766 36.35316406 28.17699219 35.83984375 29.41015625 C35.35322266 30.59544922 34.86660156 31.78074219 34.36523438 33.00195312 C26.73699882 51.51300118 26.73699882 51.51300118 25.15234375 53.09765625 C22.48175524 53.23880786 19.82802137 53.14012732 17.15234375 53.09765625 C8.38013739 30.90761609 8.38013739 30.90761609 5.40234375 22.34765625 C3.61118035 17.21050011 1.5227946 12.30574694 -0.83203125 7.40234375 C-1.76463117 5.28605932 -2.46275464 3.37667894 -2.84765625 1.09765625 C-1.84765625 0.09765625 -1.84765625 0.09765625 0 0 Z " fill="#D9D9D9" transform="translate(282.84765625,366.90234375)"/>
<path d="M0 0 C1.4375 2.0625 1.4375 2.0625 2 4 C2.66 4 3.32 4 4 4 C4 4.66 4 5.32 4 6 C4.66 6 5.32 6 6 6 C6 6.66 6 7.32 6 8 C7.32 8.66 8.64 9.32 10 10 C10 10.66 10 11.32 10 12 C10.66 12 11.32 12 12 12 C12 12.66 12 13.32 12 14 C12.61875 14.2475 13.2375 14.495 13.875 14.75 C16.40358627 16.23740369 16.71839004 17.43678009 18 20 C18.61875 20.309375 19.2375 20.61875 19.875 20.9375 C22.74649884 22.37324942 24.01522552 24.48984404 26 27 C27.98260426 28.68732277 29.9832342 30.35366057 32 32 C35.01898195 34.81314228 37.43162794 37.15035948 39 41 C39.66 41 40.32 41 41 41 C41 41.66 41 42.32 41 43 C42.32 43.66 43.64 44.32 45 45 C45 45.66 45 46.32 45 47 C45.66 47 46.32 47 47 47 C47 47.66 47 48.32 47 49 C48.32 49.66 49.64 50.32 51 51 C51.1875 54.375 51.1875 54.375 51 58 C48 60 48 60 45.0625 59.875 C41.60405994 58.88687427 40.2063509 57.80036845 38 55 C38 54.34 38 53.68 38 53 C37.34 53 36.68 53 36 53 C36 52.34 36 51.68 36 51 C35.34 51 34.68 51 34 51 C34 50.34 34 49.68 34 49 C33.41734375 48.7421875 32.8346875 48.484375 32.234375 48.21875 C29.8197097 46.90165983 28.18259823 45.44911616 26.25 43.5 C25.32960938 42.58734375 25.32960938 42.58734375 24.390625 41.65625 C23 40 23 40 23 38 C22.34 38 21.68 38 21 38 C21 37.34 21 36.68 21 36 C20.41734375 35.7421875 19.8346875 35.484375 19.234375 35.21875 C16.8197097 33.90165983 15.18259823 32.44911616 13.25 30.5 C12.32960937 29.58734375 12.32960937 29.58734375 11.390625 28.65625 C10 27 10 27 10 25 C9.34 25 8.68 25 8 25 C8 24.34 8 23.68 8 23 C7.34 23 6.68 23 6 23 C6 22.34 6 21.68 6 21 C5.12601563 20.61328125 5.12601563 20.61328125 4.234375 20.21875 C1.8197097 18.90165983 0.18259823 17.44911616 -1.75 15.5 C-2.36359375 14.8915625 -2.9771875 14.283125 -3.609375 13.65625 C-5 12 -5 12 -5 10 C-5.66 10 -6.32 10 -7 10 C-7 9.34 -7 8.68 -7 8 C-7.66 8 -8.32 8 -9 8 C-10.31668238 2.6135721 -10.31668238 2.6135721 -9 0.0625 C-5.76596872 -1.65557912 -3.43400845 -0.93654776 0 0 Z " fill="#DCDCDC" transform="translate(240,201)"/>
<path d="M0 0 C5.82280555 0.78930167 8.33275647 3.99441865 12.29858398 8.12255859 C13.44901939 9.28073593 13.44901939 9.28073593 14.62269592 10.46231079 C16.23683257 12.09356599 17.84259132 13.73314822 19.44042969 15.38037109 C21.89585462 17.91122364 24.37470341 20.41707602 26.85913086 22.91943359 C28.42369485 24.50658366 29.98689468 26.09507988 31.54858398 27.68505859 C32.29220688 28.4403183 33.03582977 29.195578 33.80198669 29.97372437 C34.48011917 30.67429962 35.15825165 31.37487488 35.85693359 32.09667969 C36.4575914 32.7140097 37.05824921 33.33133972 37.67710876 33.96737671 C38.95874023 35.53662109 38.95874023 35.53662109 38.95874023 37.53662109 C39.53624023 37.78412109 40.11374023 38.03162109 40.70874023 38.28662109 C43.28814003 39.71962098 45.01995615 41.32086786 46.95874023 43.53662109 C46.95874023 44.19662109 46.95874023 44.85662109 46.95874023 45.53662109 C47.55686523 45.80474609 48.15499023 46.07287109 48.77124023 46.34912109 C50.95721877 47.53579516 52.37206617 48.63261222 53.95874023 50.53662109 C53.95874023 51.19662109 53.95874023 51.85662109 53.95874023 52.53662109 C54.61874023 52.53662109 55.27874023 52.53662109 55.95874023 52.53662109 C56.31949973 57.9480135 56.31949973 57.9480135 54.77124023 60.47412109 C52.95874023 61.53662109 52.95874023 61.53662109 50.76342773 61.50927734 C46.59561466 60.0638937 44.24431985 57.20835495 41.27124023 54.03662109 C40.1235678 52.83672383 38.97391852 51.63871334 37.82202148 50.44287109 C37.31968994 49.90984375 36.8173584 49.37681641 36.29980469 48.82763672 C34.96775051 47.41690343 34.96775051 47.41690343 32.95874023 46.53662109 C32.95874023 45.87662109 32.95874023 45.21662109 32.95874023 44.53662109 C32.29874023 44.53662109 31.63874023 44.53662109 30.95874023 44.53662109 C30.95874023 43.87662109 30.95874023 43.21662109 30.95874023 42.53662109 C30.29874023 42.53662109 29.63874023 42.53662109 28.95874023 42.53662109 C28.95874023 41.87662109 28.95874023 41.21662109 28.95874023 40.53662109 C28.29874023 40.53662109 27.63874023 40.53662109 26.95874023 40.53662109 C26.95874023 39.87662109 26.95874023 39.21662109 26.95874023 38.53662109 C26.29874023 38.53662109 25.63874023 38.53662109 24.95874023 38.53662109 C23.27141746 36.55401684 21.60507966 34.55338689 19.95874023 32.53662109 C19.29874023 32.20662109 18.63874023 31.87662109 17.95874023 31.53662109 C17.95874023 30.87662109 17.95874023 30.21662109 17.95874023 29.53662109 C17.29874023 29.53662109 16.63874023 29.53662109 15.95874023 29.53662109 C15.95874023 28.87662109 15.95874023 28.21662109 15.95874023 27.53662109 C15.29874023 27.53662109 14.63874023 27.53662109 13.95874023 27.53662109 C13.95874023 26.87662109 13.95874023 26.21662109 13.95874023 25.53662109 C13.29874023 25.53662109 12.63874023 25.53662109 11.95874023 25.53662109 C10.27141746 23.55401684 8.60507966 21.55338689 6.95874023 19.53662109 C6.29874023 19.20662109 5.63874023 18.87662109 4.95874023 18.53662109 C4.95874023 17.87662109 4.95874023 17.21662109 4.95874023 16.53662109 C4.29874023 16.53662109 3.63874023 16.53662109 2.95874023 16.53662109 C2.95874023 15.87662109 2.95874023 15.21662109 2.95874023 14.53662109 C2.29874023 14.53662109 1.63874023 14.53662109 0.95874023 14.53662109 C0.95874023 13.87662109 0.95874023 13.21662109 0.95874023 12.53662109 C0.29874023 12.53662109 -0.36125977 12.53662109 -1.04125977 12.53662109 C-1.04125977 11.87662109 -1.04125977 11.21662109 -1.04125977 10.53662109 C-1.70125977 10.53662109 -2.36125977 10.53662109 -3.04125977 10.53662109 C-5.04125977 7.53662109 -5.04125977 7.53662109 -4.72875977 4.41162109 C-3.83564761 0.67678843 -3.83564761 0.67678843 0 0 Z " fill="#DFDFDF" transform="translate(213.041259765625,146.46337890625)"/>
<path d="M0 0 C2.64 0 5.28 0 8 0 C8 14.85 8 29.7 8 45 C16.91 45 25.82 45 35 45 C35 47.31 35 49.62 35 52 C33.29507119 53.70492881 31.15465739 53.1280442 28.88098145 53.13894653 C28.16744507 53.1369223 27.45390869 53.13489807 26.71875 53.1328125 C25.99006714 53.13376923 25.26138428 53.13472595 24.51062012 53.13571167 C22.9672029 53.13639335 21.42378283 53.13453988 19.88037109 53.13037109 C17.510026 53.12502262 15.13987041 53.13031642 12.76953125 53.13671875 C11.27343708 53.13605797 9.77734303 53.1347768 8.28125 53.1328125 C7.21094543 53.13584885 7.21094543 53.13584885 6.11901855 53.13894653 C1.11495191 53.11495191 1.11495191 53.11495191 0 52 C-0.09340434 50.37325222 -0.11745171 48.74245949 -0.11352539 47.11303711 C-0.11344986 46.07203354 -0.11337433 45.03102997 -0.11329651 43.95848083 C-0.10813522 42.8262056 -0.10297394 41.69393036 -0.09765625 40.52734375 C-0.0962413 39.37456436 -0.09482635 38.22178497 -0.09336853 37.03407288 C-0.08775005 33.33518936 -0.07519442 29.63636536 -0.0625 25.9375 C-0.05748738 23.43684983 -0.05292406 20.93619871 -0.04882812 18.43554688 C-0.03777462 12.29034412 -0.02101852 6.14517631 0 0 Z " fill="#E1E1E1" transform="translate(389,367)"/>
<path d="M0 0 C2.1875 0.3125 2.1875 0.3125 4 1 C3.18860062 1.46698303 2.37720123 1.93396606 1.54121399 2.4151001 C-1.64501706 5.65610552 -1.60394052 7.26642669 -1.68556213 11.65342712 C-1.67262367 12.99238792 -1.67262367 12.99238792 -1.65942383 14.35839844 C-1.66990753 15.30507889 -1.68039124 16.25175934 -1.69119263 17.22712708 C-1.71998398 20.35487478 -1.71364616 23.4815183 -1.70703125 26.609375 C-1.72014377 28.77843618 -1.73544661 30.94748514 -1.75285339 33.11651611 C-1.79276814 38.82446714 -1.80289805 44.53209921 -1.80688477 50.24017334 C-1.81620394 56.06516231 -1.85360988 61.88996291 -1.88867188 67.71484375 C-1.95331379 79.14322032 -1.98649977 90.57145662 -2 102 C-2.33 102 -2.66 102 -3 102 C-3.06942633 89.14384994 -3.12277381 76.28774427 -3.15543652 63.43144512 C-3.17111079 57.46212341 -3.19238133 51.49292968 -3.22631836 45.52368164 C-3.25884878 39.76599172 -3.27683973 34.00842512 -3.28463173 28.25065041 C-3.29018659 26.05094269 -3.30103349 23.85124193 -3.31719017 21.65158653 C-3.33888028 18.57706341 -3.34197043 15.50305377 -3.34057617 12.4284668 C-3.351362 11.51352951 -3.36214783 10.59859222 -3.3732605 9.65592957 C-3.36913651 8.81880432 -3.36501251 7.98167908 -3.36076355 7.1191864 C-3.36352893 6.39189174 -3.36629431 5.66459707 -3.36914349 4.91526318 C-2.89066101 2.43270582 -1.9937843 1.51064369 0 0 Z " fill="#919191" transform="translate(151,148)"/>
<path d="M0 0 C0.66 0.66 1.32 1.32 2 2 C-1.28648405 5.31141362 -4.57639982 8.61936741 -7.86938477 11.92431641 C-8.98651927 13.04644459 -10.10275038 14.16947295 -11.21801758 15.29345703 C-16.96465408 21.08384312 -22.67698492 26.82909814 -29 32 C-29.66 31.67 -30.32 31.34 -31 31 C-20.77 20.77 -10.54 10.54 0 0 Z " fill="#A5A5A5" transform="translate(307,154)"/>
<path d="M0 0 C-0.54962402 0.22365234 -1.09924805 0.44730469 -1.66552734 0.67773438 C-4.69387823 2.39301867 -6.93842359 4.69079911 -9.3515625 7.15625 C-9.8516684 7.65918579 -10.35177429 8.16212158 -10.86703491 8.68029785 C-12.45779815 10.28221398 -14.04145811 11.89094817 -15.625 13.5 C-16.69745288 14.58249093 -17.77036481 15.66452727 -18.84375 16.74609375 C-20.80705627 18.72571644 -22.76778709 20.70780841 -24.72509766 22.69335938 C-26.14542246 24.13349983 -27.56973306 25.56973306 -29 27 C-28.75 24.625 -28.75 24.625 -28 22 C-26.0625 20.9375 -26.0625 20.9375 -24 20 C-23.74089844 19.43925781 -23.48179687 18.87851563 -23.21484375 18.30078125 C-21.52168922 15.09413167 -19.05788305 12.76822595 -16.5 10.25 C-16.00113281 9.74339844 -15.50226563 9.23679688 -14.98828125 8.71484375 C-11.25341139 5 -11.25341139 5 -9 5 C-8.71125 4.360625 -8.4225 3.72125 -8.125 3.0625 C-6.14499356 -0.56751181 -3.81564568 -0.10041173 0 0 Z " fill="#A0A0A0" transform="translate(237,230)"/>
<path d="M0 0 C-1.65091778 4.29238623 -4.73754566 6.8793915 -8 10 C-8.99 9.67 -9.98 9.34 -11 9 C-9.54782324 7.49403892 -8.08807139 5.99537896 -6.625 4.5 C-5.40683594 3.24703125 -5.40683594 3.24703125 -4.1640625 1.96875 C-2 0 -2 0 0 0 Z " fill="#999999" transform="translate(148,283)"/>
<path d="M0 0 C0.66 0.33 1.32 0.66 2 1 C0.89718873 2.27200971 -0.20730769 3.54255853 -1.3125 4.8125 C-1.92738281 5.52019531 -2.54226562 6.22789062 -3.17578125 6.95703125 C-4.73334335 8.70136739 -6.32658875 10.36778041 -8 12 C-8.99 11.67 -9.98 11.34 -11 11 C-9.625 9.5 -9.625 9.5 -8 8 C-7.34 8 -6.68 8 -6 8 C-6 7.34 -6 6.68 -6 6 C-4.125 3.875 -4.125 3.875 -2 2 C-1.34 2 -0.68 2 0 2 C0 1.34 0 0.68 0 0 Z " fill="#A0A0A0" transform="translate(222,270)"/>
<path d="M0 0 C4.62 0 9.24 0 14 0 C13.67 0.99 13.34 1.98 13 3 C12.67 2.34 12.34 1.68 12 1 C10.41590006 1.11487748 8.83271037 1.24234508 7.25 1.375 C6.36828125 1.44460938 5.4865625 1.51421875 4.578125 1.5859375 C2.00933618 1.99850055 0.24158985 2.71160957 -2 4 C-1.34 2.68 -0.68 1.36 0 0 Z " fill="#B4B4B4" transform="translate(212,367)"/>
<path d="M0 0 C2.00720923 0.28674418 4.0085944 0.61866701 6 1 C6 1.33 6 1.66 6 2 C4.35 2 2.7 2 1 2 C0.67 2.66 0.34 3.32 0 4 C-1.30915279 5.03145371 -2.64082143 6.03542166 -4 7 C-4.66 6.67 -5.32 6.34 -6 6 C-4 4 -2 2 0 0 Z " fill="#B1B1B1" transform="translate(284,146)"/>
<path d="M0 0 C-0.556875 0.226875 -1.11375 0.45375 -1.6875 0.6875 C-4.63246684 2.35896766 -6.68156544 4.55276352 -9 7 C-9.99 6.67 -10.98 6.34 -12 6 C-11.01 5.67 -10.02 5.34 -9 5 C-8.30062468 3.68352881 -7.63270867 2.34977849 -7 1 C-4.53721199 -0.231394 -2.7204945 -0.07159196 0 0 Z " fill="#959595" transform="translate(237,230)"/>
</svg>
